<svg xmlns="http://www.w3.org/2000/svg" viewBox="0 0 225.01 260.44"><defs><style>.cls-1{fill:#8683a3;}.cls-2{fill:#ffdfb5;}.cls-3{fill:none;}.cls-4{fill:#fa7b79;}.cls-5{fill:#c07f8e;}.cls-6{fill:#fff;}.cls-7{fill:#fcbdbc;}</style></defs><g id="Layer_2" data-name="Layer 2"><g id="Layer_1-2" data-name="Layer 1"><ellipse class="cls-1" cx="112.5" cy="254.8" rx="112.5" ry="5.64"/><path class="cls-2" d="M191.48,252H33.53a6.44,6.44,0,0,1-6.63-6L21.6,53a6.4,6.4,0,0,1,6.63-6.33H196.78A6.41,6.41,0,0,1,203.41,53L198.11,246A6.44,6.44,0,0,1,191.48,252Z"/><rect class="cls-3" x="91" y="173.64" width="48.06" height="48.06" rx="8.6" transform="translate(-93.74 104.27) rotate(-35.7)"/><path class="cls-4" d="M187.28,132.47l-4.57.05a8.5,8.5,0,0,1-.2,2.74L175.18,166a8.6,8.6,0,0,1-10.36,6.37l-30.76-7.34a8.59,8.59,0,0,1-6.36-10.35l5.16-21.64-73,.78,18,96.78-5.63,1L54,133.9l-16.39.18A3.74,3.74,0,0,0,34,137.93L36.86,238.2a3.74,3.74,0,0,0,3.74,3.63H184.41a3.74,3.74,0,0,0,3.74-3.63l2.91-101.88A3.74,3.74,0,0,0,187.28,132.47Zm-45.7,75.7-25.07,18a8.59,8.59,0,0,1-12-2l-18-25.07a8.57,8.57,0,0,1,2-12l25.06-18a8.6,8.6,0,0,1,12,2l18,25.06A8.6,8.6,0,0,1,141.58,208.17Z"/><polygon class="cls-1" points="35.01 0 29.39 1.04 54.03 133.9 59.84 133.84 35.01 0"/><polygon class="cls-5" points="77.79 230.62 59.84 133.84 54.03 133.9 72.16 231.66 77.79 230.62"/><path class="cls-6" d="M176.14,124.91l-30.75-7.34A8.6,8.6,0,0,0,135,123.94l-2.17,9.12,49.85-.54A8.58,8.58,0,0,0,176.14,124.91Z"/><path class="cls-7" d="M134.06,165.05l30.76,7.34A8.6,8.6,0,0,0,175.18,166l7.33-30.76a8.5,8.5,0,0,0,.2-2.74l-49.85.54L127.7,154.7A8.59,8.59,0,0,0,134.06,165.05Z"/><rect class="cls-7" x="91" y="173.64" width="48.06" height="48.06" rx="8.6" transform="translate(-93.74 104.27) rotate(-35.7)"/></g></g></svg>